<?xml version="1.0" encoding="UTF-8"?>
<svg width="14px" height="18px" viewBox="0 0 14 18" version="1.1" xmlns="http://www.w3.org/2000/svg" xmlns:xlink="http://www.w3.org/1999/xlink">
    <!-- Generator: Sketch 47.1 (45422) - http://www.bohemiancoding.com/sketch -->
    <title>Trash Icon </title>
    <desc>Created with Sketch.</desc>
    <defs></defs>
    <g id="Page-1" stroke="none" stroke-width="1" fill="none" fill-rule="evenodd">
        <g id="Desktop-HD" transform="translate(-600.000000, -646.000000)" fill="#D00303">
            <g id="Card-2" transform="translate(570.000000, 261.000000)">
                <g id="Delete" transform="translate(0.000000, 364.000000)">
                    <path d="M42.999,25 L30.999,25 L30.999,37 C30.999,38.104 31.895,39 33,39 L40.999,39 C42.105,39 42.999,38.104 42.999,37 L42.999,25 M39.499,20.999 L34.499,20.999 L33.5,22 L30.999,22 C30.448,22 30,22.448 30,22.999 L30,24 L44,24 L44,22.999 C44,22.448 43.552,22 42.999,22 L40.5,22 L39.499,20.999" id="Trash-Icon-"></path>
                </g>
            </g>
        </g>
    </g>
</svg>